<?xml version="1.0" encoding="UTF-8"?>
<svg width="700pt" height="700pt" version="1.1" viewBox="0 0 700 700" xmlns="http://www.w3.org/2000/svg" xmlns:xlink="http://www.w3.org/1999/xlink">
 <defs>
  <symbol id="v" overflow="visible">
   <path d="m8.6875-0.51562c-0.44922 0.23047-0.91797 0.40234-1.4062 0.51562-0.48047 0.125-0.98438 0.1875-1.5156 0.1875-1.5742 0-2.8242-0.4375-3.75-1.3125-0.91797-0.88281-1.375-2.082-1.375-3.5938 0-1.5078 0.45703-2.7031 1.375-3.5781 0.92578-0.88281 2.1758-1.3281 3.75-1.3281 0.53125 0 1.0352 0.0625 1.5156 0.1875 0.48828 0.11719 0.95703 0.28906 1.4062 0.51562v1.9531c-0.44922-0.30078-0.89844-0.52344-1.3438-0.67188-0.4375-0.14453-0.89844-0.21875-1.375-0.21875-0.875 0-1.5625 0.28125-2.0625 0.84375-0.49219 0.55469-0.73438 1.3203-0.73438 2.2969 0 0.98047 0.24219 1.75 0.73438 2.3125 0.5 0.55469 1.1875 0.82812 2.0625 0.82812 0.47656 0 0.9375-0.070313 1.375-0.21875 0.44531-0.14453 0.89453-0.36719 1.3438-0.67188z"/>
  </symbol>
  <symbol id="d" overflow="visible">
   <path d="m6.3594-5.1562c-0.19922-0.09375-0.39844-0.16016-0.59375-0.20312-0.19922-0.050781-0.39844-0.078125-0.59375-0.078125-0.58594 0-1.0312 0.1875-1.3438 0.5625s-0.46875 0.91406-0.46875 1.6094v3.2656h-2.2656v-7.0938h2.2656v1.1719c0.28906-0.46875 0.625-0.80469 1-1.0156 0.375-0.21875 0.82812-0.32812 1.3594-0.32812 0.070312 0 0.14844 0.007813 0.23438 0.015625 0.09375 0 0.22266 0.011719 0.39062 0.03125z"/>
  </symbol>
  <symbol id="a" overflow="visible">
   <path d="m8.1719-3.5625v0.64062h-5.2969c0.050781 0.53125 0.23828 0.93359 0.5625 1.2031 0.33203 0.26172 0.79688 0.39062 1.3906 0.39062 0.47656 0 0.96875-0.066406 1.4688-0.20312 0.5-0.14453 1.0078-0.35938 1.5312-0.64062v1.7344c-0.53125 0.21094-1.0703 0.36719-1.6094 0.46875-0.53125 0.10156-1.0703 0.15625-1.6094 0.15625-1.2812 0-2.2773-0.32031-2.9844-0.96875-0.71094-0.65625-1.0625-1.5781-1.0625-2.7656 0-1.1562 0.34766-2.0625 1.0469-2.7188 0.69531-0.66406 1.6562-1 2.875-1 1.1133 0 2.0039 0.33984 2.6719 1.0156 0.67578 0.66797 1.0156 1.5625 1.0156 2.6875zm-2.3281-0.75c0-0.4375-0.13281-0.78516-0.39062-1.0469-0.25-0.25781-0.57422-0.39062-0.96875-0.39062-0.44922 0-0.80859 0.125-1.0781 0.375-0.27344 0.24219-0.44531 0.59375-0.51562 1.0625z"/>
  </symbol>
  <symbol id="k" overflow="visible">
   <path d="m4.2656-3.1875c-0.46875 0-0.82422 0.085938-1.0625 0.25-0.24219 0.15625-0.35938 0.39062-0.35938 0.70312 0 0.28125 0.09375 0.50781 0.28125 0.67188 0.19531 0.15625 0.46875 0.23438 0.8125 0.23438 0.42578 0 0.78516-0.14844 1.0781-0.45312 0.28906-0.30078 0.4375-0.6875 0.4375-1.1562v-0.25zm3.4688-0.85938v4.0469h-2.2812v-1.0469c-0.3125 0.42969-0.66406 0.74219-1.0469 0.9375-0.375 0.19531-0.83594 0.29688-1.375 0.29688-0.73047 0-1.3242-0.21094-1.7812-0.64062-0.46094-0.4375-0.6875-0.99219-0.6875-1.6719 0-0.83203 0.28125-1.4414 0.84375-1.8281 0.57031-0.39453 1.4727-0.59375 2.7031-0.59375h1.3438v-0.17188c0-0.35156-0.14844-0.61328-0.4375-0.78125-0.28125-0.16406-0.71875-0.25-1.3125-0.25-0.49219 0-0.94531 0.046875-1.3594 0.14062-0.41797 0.09375-0.80859 0.24219-1.1719 0.4375v-1.7344c0.48828-0.11328 0.97656-0.20312 1.4688-0.26562 0.48828-0.0625 0.97656-0.09375 1.4688-0.09375 1.2812 0 2.2031 0.25781 2.7656 0.76562 0.57031 0.5 0.85938 1.3203 0.85938 2.4531z"/>
  </symbol>
  <symbol id="c" overflow="visible">
   <path d="m3.5625-9.1094v2.0156h2.3438v1.625h-2.3438v3c0 0.33594 0.0625 0.55859 0.1875 0.67188 0.13281 0.11719 0.39844 0.17188 0.79688 0.17188h1.1562v1.625h-1.9375c-0.89844 0-1.5312-0.1875-1.9062-0.5625s-0.5625-1.0078-0.5625-1.9062v-3h-1.125v-1.625h1.125v-2.0156z"/>
  </symbol>
  <symbol id="j" overflow="visible">
   <path d="m5.9219-6.0469v-3.8125h2.2656v9.8594h-2.2656v-1.0312c-0.3125 0.41797-0.66406 0.72656-1.0469 0.92188-0.375 0.19531-0.80859 0.29688-1.2969 0.29688-0.875 0-1.5938-0.34766-2.1562-1.0469-0.5625-0.69531-0.84375-1.5938-0.84375-2.6875s0.28125-1.9844 0.84375-2.6719c0.5625-0.69531 1.2812-1.0469 2.1562-1.0469 0.48828 0 0.92188 0.10156 1.2969 0.29688 0.38281 0.19922 0.73438 0.50781 1.0469 0.92188zm-1.5 4.5781c0.47656 0 0.84766-0.17578 1.1094-0.53125 0.25781-0.35156 0.39062-0.86719 0.39062-1.5469 0-0.66406-0.13281-1.1758-0.39062-1.5312-0.26172-0.35156-0.63281-0.53125-1.1094-0.53125-0.48047 0-0.85156 0.17969-1.1094 0.53125-0.25 0.35547-0.375 0.86719-0.375 1.5312 0 0.67969 0.125 1.1953 0.375 1.5469 0.25781 0.35547 0.62891 0.53125 1.1094 0.53125z"/>
  </symbol>
  <symbol id="i" overflow="visible">
   <path d="m4.8594-1.4688c0.48828 0 0.85938-0.17578 1.1094-0.53125 0.25781-0.35156 0.39062-0.86719 0.39062-1.5469 0-0.66406-0.13281-1.1758-0.39062-1.5312-0.25-0.35156-0.62109-0.53125-1.1094-0.53125-0.48047 0-0.85156 0.17969-1.1094 0.53125-0.26172 0.35547-0.39062 0.86719-0.39062 1.5312 0 0.67969 0.12891 1.1953 0.39062 1.5469 0.25781 0.35547 0.62891 0.53125 1.1094 0.53125zm-1.5-4.5781c0.3125-0.41406 0.65625-0.72266 1.0312-0.92188 0.38281-0.19531 0.82031-0.29688 1.3125-0.29688 0.875 0 1.5938 0.35156 2.1562 1.0469 0.5625 0.6875 0.84375 1.5781 0.84375 2.6719s-0.28125 1.9922-0.84375 2.6875c-0.5625 0.69922-1.2812 1.0469-2.1562 1.0469-0.49219 0-0.92969-0.10156-1.3125-0.29688-0.375-0.19531-0.71875-0.50391-1.0312-0.92188v1.0312h-2.2656v-9.8594h2.2656z"/>
  </symbol>
  <symbol id="h" overflow="visible">
   <path d="m0.15625-7.0938h2.2656l1.9062 4.8125 1.625-4.8125h2.2656l-2.9844 7.7656c-0.30469 0.78906-0.65234 1.3438-1.0469 1.6562-0.39844 0.3125-0.92188 0.46875-1.5781 0.46875h-1.3125v-1.4844h0.70312c0.38281 0 0.66406-0.0625 0.84375-0.1875 0.17578-0.125 0.3125-0.34375 0.40625-0.65625l0.0625-0.20312z"/>
  </symbol>
  <symbol id="g" overflow="visible">
   <path d="m7.7656-9.1562v2c-0.52344-0.22656-1.0273-0.39844-1.5156-0.51562-0.49219-0.125-0.96094-0.1875-1.4062-0.1875-0.57422 0-1 0.085937-1.2812 0.25-0.28125 0.15625-0.42188 0.40234-0.42188 0.73438 0 0.26172 0.09375 0.46484 0.28125 0.60938 0.1875 0.13672 0.53125 0.25 1.0312 0.34375l1.0312 0.21875c1.0508 0.21094 1.7969 0.53125 2.2344 0.96875 0.44531 0.42969 0.67188 1.0391 0.67188 1.8281 0 1.043-0.3125 1.8203-0.9375 2.3281-0.61719 0.51172-1.5586 0.76562-2.8281 0.76562-0.59375 0-1.1953-0.058594-1.7969-0.17188-0.60547-0.11328-1.2109-0.28516-1.8125-0.51562v-2.0469c0.60156 0.3125 1.1875 0.55469 1.75 0.71875 0.5625 0.16797 1.1016 0.25 1.625 0.25 0.53125 0 0.9375-0.085937 1.2188-0.26562 0.28906-0.17578 0.4375-0.42969 0.4375-0.76562 0-0.28906-0.10156-0.51562-0.29688-0.67188-0.1875-0.16406-0.57031-0.3125-1.1406-0.4375l-0.95312-0.21875c-0.94922-0.19531-1.6406-0.51562-2.0781-0.95312-0.42969-0.44531-0.64062-1.0469-0.64062-1.7969 0-0.94531 0.30078-1.6719 0.90625-2.1719 0.60156-0.50781 1.4766-0.76562 2.625-0.76562 0.51953 0 1.0508 0.042969 1.5938 0.125 0.55078 0.074219 1.1172 0.1875 1.7031 0.34375z"/>
  </symbol>
  <symbol id="u" overflow="visible">
   <path d="m1.1875-9.4531h6.5781v1.8438h-4.1406v1.7656h3.8906v1.8281h-3.8906v2.1719h4.2812v1.8438h-6.7188z"/>
  </symbol>
  <symbol id="t" overflow="visible">
   <path d="m1.1875-9.4531h2.4375v7.6094h4.2812v1.8438h-6.7188z"/>
  </symbol>
  <symbol id="s" overflow="visible">
   <path d="m1.0938-7.0938h2.2656v7.0938h-2.2656zm0-2.7656h2.2656v1.8594h-2.2656z"/>
  </symbol>
  <symbol id="f" overflow="visible">
   <path d="m6.8125-6.875v1.8594c-0.30469-0.21875-0.60938-0.375-0.92188-0.46875-0.3125-0.10156-0.63672-0.15625-0.96875-0.15625-0.625 0-1.1172 0.1875-1.4688 0.5625-0.35547 0.36719-0.53125 0.875-0.53125 1.5312 0 0.66797 0.17578 1.1875 0.53125 1.5625 0.35156 0.36719 0.84375 0.54688 1.4688 0.54688 0.35156 0 0.69141-0.050781 1.0156-0.15625 0.32031-0.10156 0.61328-0.25781 0.875-0.46875v1.8594c-0.35547 0.125-0.71484 0.21875-1.0781 0.28125-0.36719 0.070313-0.73047 0.10938-1.0938 0.10938-1.2812 0-2.2812-0.32812-3-0.98438s-1.0781-1.5703-1.0781-2.75c0-1.1641 0.35938-2.0781 1.0781-2.7344s1.7188-0.98438 3-0.98438c0.375 0 0.73828 0.039063 1.0938 0.10938 0.36328 0.0625 0.72266 0.15625 1.0781 0.28125z"/>
  </symbol>
  <symbol id="b" overflow="visible">
   <path d="m4.4688-5.6406c-0.51172 0-0.89844 0.18359-1.1562 0.54688-0.26172 0.35547-0.39062 0.87109-0.39062 1.5469 0 0.6875 0.12891 1.2148 0.39062 1.5781 0.25781 0.35547 0.64453 0.53125 1.1562 0.53125 0.48828 0 0.86328-0.17578 1.125-0.53125 0.25781-0.36328 0.39062-0.89062 0.39062-1.5781 0-0.67578-0.13281-1.1914-0.39062-1.5469-0.26172-0.36328-0.63672-0.54688-1.125-0.54688zm0-1.625c1.2188 0 2.1719 0.33594 2.8594 1 0.6875 0.65625 1.0312 1.5625 1.0312 2.7188 0 1.168-0.34375 2.0859-1.0312 2.75-0.6875 0.65625-1.6406 0.98438-2.8594 0.98438-1.2305 0-2.1875-0.32812-2.875-0.98438-0.6875-0.66406-1.0312-1.582-1.0312-2.75 0-1.1562 0.34375-2.0625 1.0312-2.7188 0.6875-0.66406 1.6445-1 2.875-1z"/>
  </symbol>
  <symbol id="e" overflow="visible">
   <path d="m8.2188-4.3125v4.3125h-2.2812v-3.3125c0-0.60156-0.015625-1.0195-0.046875-1.25-0.023437-0.23828-0.070313-0.41016-0.14062-0.51562-0.085938-0.15625-0.20312-0.26953-0.35938-0.34375-0.14844-0.082031-0.32031-0.125-0.51562-0.125-0.46875 0-0.83984 0.18359-1.1094 0.54688-0.27344 0.36719-0.40625 0.87109-0.40625 1.5156v3.4844h-2.2656v-7.0938h2.2656v1.0469c0.34375-0.41406 0.70312-0.72266 1.0781-0.92188 0.38281-0.19531 0.8125-0.29688 1.2812-0.29688 0.82031 0 1.4414 0.25781 1.8594 0.76562 0.42578 0.5 0.64062 1.2305 0.64062 2.1875z"/>
  </symbol>
  <symbol id="r" overflow="visible">
   <path d="m5.75-9.8594v1.5h-1.25c-0.32422 0-0.54688 0.058594-0.67188 0.17188-0.125 0.11719-0.1875 0.3125-0.1875 0.59375v0.5h1.9375v1.625h-1.9375v5.4688h-2.2656v-5.4688h-1.125v-1.625h1.125v-0.5c0-0.76953 0.21094-1.3359 0.64062-1.7031 0.4375-0.375 1.1016-0.5625 2-0.5625z"/>
  </symbol>
  <symbol id="q" overflow="visible">
   <path d="m7.6562-5.9219c0.28906-0.4375 0.63281-0.76953 1.0312-1 0.39453-0.22656 0.82812-0.34375 1.2969-0.34375 0.8125 0 1.4297 0.25781 1.8594 0.76562 0.42578 0.5 0.64062 1.2305 0.64062 2.1875v4.3125h-2.2812v-3.7031c0.007813-0.050781 0.015625-0.10156 0.015625-0.15625v-0.26562c0-0.5-0.074219-0.85938-0.21875-1.0781-0.14844-0.22656-0.38672-0.34375-0.71875-0.34375-0.42969 0-0.76172 0.17969-1 0.53125-0.23047 0.35547-0.35156 0.86719-0.35938 1.5312v3.4844h-2.2812v-3.7031c0-0.78125-0.070313-1.2812-0.20312-1.5-0.13672-0.22656-0.375-0.34375-0.71875-0.34375-0.4375 0-0.77734 0.17969-1.0156 0.53125-0.23047 0.35547-0.34375 0.86719-0.34375 1.5312v3.4844h-2.2812v-7.0938h2.2812v1.0469c0.28125-0.40625 0.59766-0.70703 0.95312-0.90625 0.36328-0.20703 0.76562-0.3125 1.2031-0.3125 0.48828 0 0.92188 0.12109 1.2969 0.35938 0.375 0.24219 0.65625 0.57031 0.84375 0.98438z"/>
  </symbol>
  <symbol id="p" overflow="visible">
   <path d="m8.2188-4.3125v4.3125h-2.2812v-3.2969c0-0.61328-0.015625-1.0352-0.046875-1.2656-0.023437-0.23828-0.070313-0.41016-0.14062-0.51562-0.085938-0.15625-0.20312-0.26953-0.35938-0.34375-0.14844-0.082031-0.32031-0.125-0.51562-0.125-0.46875 0-0.83984 0.18359-1.1094 0.54688-0.27344 0.36719-0.40625 0.87109-0.40625 1.5156v3.4844h-2.2656v-9.8594h2.2656v3.8125c0.34375-0.41406 0.70312-0.72266 1.0781-0.92188 0.38281-0.19531 0.8125-0.29688 1.2812-0.29688 0.82031 0 1.4414 0.25781 1.8594 0.76562 0.42578 0.5 0.64062 1.2305 0.64062 2.1875z"/>
  </symbol>
  <symbol id="o" overflow="visible">
   <path d="m1.1875-9.4531h2.7188l3.4531 6.4844v-6.4844h2.2969v9.4531h-2.7188l-3.4375-6.4844v6.4844h-2.3125z"/>
  </symbol>
  <symbol id="n" overflow="visible">
   <path d="m1.0156-2.7656v-4.3281h2.2812v0.70312c0 0.38672-0.007813 0.87109-0.015625 1.4531v1.1562c0 0.57422 0.015625 0.98438 0.046875 1.2344s0.078125 0.43359 0.14062 0.54688c0.09375 0.15625 0.21094 0.27734 0.35938 0.35938 0.15625 0.074219 0.33203 0.10938 0.53125 0.10938 0.46875 0 0.83594-0.17969 1.1094-0.54688 0.26953-0.36328 0.40625-0.86719 0.40625-1.5156v-3.5h2.2656v7.0938h-2.2656v-1.0312c-0.34375 0.41797-0.71094 0.72656-1.0938 0.92188-0.375 0.19531-0.79297 0.29688-1.25 0.29688-0.82422 0-1.4492-0.25-1.875-0.75-0.42969-0.50781-0.64062-1.2422-0.64062-2.2031z"/>
  </symbol>
  <symbol id="m" overflow="visible">
   <path d="m1.1875-9.4531h4.0469c1.207 0 2.1289 0.26562 2.7656 0.79688 0.64453 0.53125 0.96875 1.293 0.96875 2.2812 0 1-0.32422 1.7656-0.96875 2.2969-0.63672 0.53125-1.5586 0.79688-2.7656 0.79688h-1.6094v3.2812h-2.4375zm2.4375 1.7656v2.6406h1.3594c0.46875 0 0.82812-0.11328 1.0781-0.34375 0.25781-0.22656 0.39062-0.55469 0.39062-0.98438 0-0.41406-0.13281-0.73828-0.39062-0.96875-0.25-0.22656-0.60938-0.34375-1.0781-0.34375z"/>
  </symbol>
  <symbol id="l" overflow="visible">
   <path d="m1.0938-7.0938h2.2656v6.9688c0 0.94531-0.23047 1.6719-0.6875 2.1719-0.46094 0.5-1.1211 0.75-1.9844 0.75h-1.125v-1.4844h0.40625c0.42578 0 0.71875-0.10156 0.875-0.29688 0.16406-0.1875 0.25-0.57031 0.25-1.1406zm0-2.7656h2.2656v1.8594h-2.2656z"/>
  </symbol>
 </defs>
 <g>
  <path d="m655.93 233.01h-484.82l129.63-129.63c46.668-46.668-23.332-116.67-70-70l-215.18 215.18c-20.742 18.148-20.742 51.852 0 70l215.18 215.18c44.074 46.668 116.67-23.332 70-70l-129.63-129.63h484.82c57.035 0 57.035-101.11 0-101.11z" fill-rule="evenodd"/>
  <use y="588.195312" xlink:href="#v"/>
  <use x="9.511719" y="588.195312" xlink:href="#d"/>
  <use x="15.90625" y="588.195312" xlink:href="#a"/>
  <use x="24.699219" y="588.195312" xlink:href="#k"/>
  <use x="33.445312" y="588.195312" xlink:href="#c"/>
  <use x="39.640625" y="588.195312" xlink:href="#a"/>
  <use x="48.433594" y="588.195312" xlink:href="#j"/>
  <use x="62.226562" y="588.195312" xlink:href="#i"/>
  <use x="71.503906" y="588.195312" xlink:href="#h"/>
  <use x="84.46875" y="588.195312" xlink:href="#g"/>
  <use x="93.804688" y="588.195312" xlink:href="#u"/>
  <use x="102.660156" y="588.195312" xlink:href="#t"/>
  <use x="110.917969" y="588.195312" xlink:href="#s"/>
  <use x="115.363281" y="588.195312" xlink:href="#f"/>
  <use x="123.046875" y="588.195312" xlink:href="#b"/>
  <use x="131.953125" y="588.195312" xlink:href="#e"/>
  <use y="601.15625" xlink:href="#r"/>
  <use x="5.640625" y="601.15625" xlink:href="#d"/>
  <use x="12.03125" y="601.15625" xlink:href="#b"/>
  <use x="20.9375" y="601.15625" xlink:href="#q"/>
  <use x="38.957031" y="601.15625" xlink:href="#c"/>
  <use x="45.15625" y="601.15625" xlink:href="#p"/>
  <use x="54.382812" y="601.15625" xlink:href="#a"/>
  <use x="67.6875" y="601.15625" xlink:href="#o"/>
  <use x="78.539062" y="601.15625" xlink:href="#b"/>
  <use x="87.441406" y="601.15625" xlink:href="#n"/>
  <use x="96.671875" y="601.15625" xlink:href="#e"/>
  <use x="110.414062" y="601.15625" xlink:href="#m"/>
  <use x="119.914063" y="601.15625" xlink:href="#d"/>
  <use x="126.304688" y="601.15625" xlink:href="#b"/>
  <use x="135.210938" y="601.15625" xlink:href="#l"/>
  <use x="139.65625" y="601.15625" xlink:href="#a"/>
  <use x="148.449219" y="601.15625" xlink:href="#f"/>
  <use x="156.132812" y="601.15625" xlink:href="#c"/>
 </g>
</svg>
