<?xml version="1.0" encoding="UTF-8"?>
<svg width="700pt" height="700pt" version="1.1" viewBox="0 0 700 700" xmlns="http://www.w3.org/2000/svg">
 <path d="m192.5 56.535c-14.395 0-26.25 11.855-26.25 26.25v402.5c0 14.016 16.395 22.988 28.199 15.434l145.54-93.156c6.125-3.9219 13.902-3.9219 20.031 0l145.54 93.156c11.805 7.5547 28.199-1.418 28.199-15.434v-402.5c0-14.395-11.855-26.25-26.25-26.25zm0 17.5h315c4.9375 0 8.75 3.8125 8.75 8.75v56.875h-332.5v-56.875c0-4.9375 3.8125-8.75 8.75-8.75zm-8.75 83.125h332.5v328.12c0 1.1211-0.32031 1.3047-1.2656 0.69922l-145.54-93.156c-11.844-7.582-27.055-7.582-38.898 0l-145.54 93.156c-0.94531 0.60547-1.2656 0.41797-1.2656-0.69922z"/>
</svg>
