<?xml version="1.0" encoding="UTF-8"?>
<svg width="700pt" height="700pt" version="1.1" viewBox="0 0 700 700" xmlns="http://www.w3.org/2000/svg">
 <path d="m539.35 175h-63.703l12.426-64.051c1.1875-6.25-1.0508-12.664-5.8711-16.816-4.8203-4.1562-11.488-5.4219-17.5-3.3242-6.0078 2.0977-10.441 7.2383-11.629 13.492l-13.824 70h-140l12.426-64.051c1.1875-6.2539-1.0508-12.664-5.8711-16.816-4.8203-4.1562-11.492-5.4258-17.5-3.3281-6.0078 2.0977-10.441 7.2422-11.629 13.496l-13.824 70h-70c-6.2539 0-12.031 3.332-15.156 8.75-3.125 5.4141-3.125 12.082 0 17.5 3.125 5.4141 8.9023 8.75 15.156 8.75h63.699l-25.375 141.4h-70c-6.2539 0-12.031 3.3359-15.156 8.75s-3.125 12.086 0 17.5 8.9023 8.75 15.156 8.75h63.176l-12.426 64.051c-0.875 4.5469 0.089844 9.2539 2.6836 13.094 2.5898 3.8359 6.5977 6.4922 11.141 7.3789h3.3242c4.1211 0.078124 8.1328-1.3047 11.332-3.8984 3.2031-2.5898 5.3867-6.2305 6.168-10.273l13.824-70h140l-12.426 64.051 0.003906-0.003906c-0.875 4.5508 0.089844 9.2578 2.6797 13.094 2.5938 3.8398 6.5977 6.4922 11.145 7.3828h3.3242c4.1172 0.074219 8.1328-1.3047 11.332-3.8984 3.2031-2.5938 5.3867-6.2305 6.168-10.277l13.824-70h70c6.2539 0 12.031-3.3359 15.156-8.75 3.125-5.4141 3.125-12.086 0-17.5-3.125-5.4141-8.9023-8.75-15.156-8.75h-64.75l27.125-140h70c6.2539 0 12.031-3.3359 15.156-8.75 3.125-5.4141 3.125-12.086 0-17.5-3.125-5.4141-8.9023-8.75-15.156-8.75zm-133.18 175h-140l27.125-140h140z"/>
</svg>
