<?xml version="1.0" encoding="UTF-8"?>
<svg width="700pt" height="700pt" version="1.1" viewBox="0 0 700 700" xmlns="http://www.w3.org/2000/svg">
 <path d="m438.9 11.844c41.879 0 76.07 32.922 78.102 74.297l0.097656 3.9023-0.015624 21.969 28.43 0.011719 3.9023 0.09375c40.078 1.9727 72.227 34.121 74.199 74.203l0.09375 3.9023v203.12l-0.09375 3.9062c-1.9727 40.078-34.121 72.227-74.199 74.199l-3.9023 0.09375-8.3633-0.007812 0.015625 58.043c0 15.375-17.547 24.156-29.855 14.945l-97.484-72.988-92.27 0.007812-2.1758-0.125c-9.2852-1.0781-16.488-8.9688-16.488-18.543 0-9.5703 7.2031-17.461 16.488-18.539l2.1758-0.125h98.16l2.1758 0.125c1.3594 0.15625 2.6758 0.46094 3.9297 0.89453l2.1992 0.92578c1.3008 0.56641 2.5508 1.2852 3.7266 2.168l72.086 53.961v-38.797c0-3.8711 1.1758-7.4648 3.1914-10.445 2.9453-4.7148 7.9258-8.0352 13.711-8.707l2.1797-0.125h26.598l2.918-0.10547c20.242-1.4258 36.414-17.598 37.844-37.844l0.10156-2.918v-203.12l-0.10156-2.918c-1.4297-20.246-17.602-36.418-37.844-37.844l-2.918-0.10547-28.43-0.011719 0.015624 143.82c0 41.879-32.922 76.066-74.297 78.102l-3.9023 0.097656h-51.371c-10.309 0-18.664-8.3594-18.664-18.668 0-9.5742 7.2031-17.465 16.488-18.543l2.1758-0.125h51.371c21.586 0 39.266-16.738 40.762-37.945l0.10156-2.918v-203.12c0-21.586-16.738-39.266-37.945-40.762l-2.918-0.10156h-278.32c-21.59 0-39.266 16.738-40.766 37.945l-0.10156 2.918v203.12c0 21.586 16.738 39.266 37.945 40.762l2.9219 0.10156h26.594c6.7109 0 12.598 3.543 15.887 8.8594 1.6172 2.3711 2.6953 5.1445 3.0586 8.1367l0.13672 2.2852v38.797l104.62-78.32c8.2539-6.1797 19.953-4.4961 26.129 3.7578 5.7031 7.6172 4.7109 18.172-1.9688 24.609l-1.7852 1.5195-134.47 100.67c-11.75 8.7969-28.27 1.1953-29.75-12.887l-0.10547-2.0547-0.003906-58.051-8.3398 0.015625c-41.879 0-76.07-32.922-78.105-74.297l-0.09375-3.9023v-203.12c0-41.879 32.922-76.066 74.293-78.102l3.9062-0.097656zm-232.32 161c10.309 0 18.668 8.3594 18.668 18.668 0 10.309-8.3594 18.668-18.668 18.668s-18.668-8.3594-18.668-18.668c0-10.309 8.3594-18.668 18.668-18.668zm93.332 0c10.309 0 18.668 8.3594 18.668 18.668 0 10.309-8.3594 18.668-18.668 18.668s-18.664-8.3594-18.664-18.668c0-10.309 8.3555-18.668 18.664-18.668zm93.336 0c10.309 0 18.664 8.3594 18.664 18.668 0 10.309-8.3555 18.668-18.664 18.668-10.312 0-18.668-8.3594-18.668-18.668 0-10.309 8.3555-18.668 18.668-18.668z"/>
</svg>
