<?xml version="1.0" encoding="UTF-8"?>
<svg width="700pt" height="700pt" version="1.1" viewBox="0 0 700 700" xmlns="http://www.w3.org/2000/svg" xmlns:xlink="http://www.w3.org/1999/xlink">
 <defs>
  <symbol id="t" overflow="visible">
   <path d="m4.4531-0.26562c-0.23047 0.11719-0.46875 0.20312-0.71875 0.26562s-0.51172 0.09375-0.78125 0.09375c-0.80469 0-1.4453-0.22266-1.9219-0.67188-0.46875-0.45703-0.70312-1.0703-0.70312-1.8438 0-0.76953 0.23438-1.3789 0.70312-1.8281 0.47656-0.45703 1.1172-0.6875 1.9219-0.6875 0.26953 0 0.53125 0.03125 0.78125 0.09375 0.25 0.054688 0.48828 0.14062 0.71875 0.26562v1c-0.23047-0.15625-0.46094-0.26953-0.6875-0.34375-0.21875-0.070313-0.45312-0.10938-0.70312-0.10938-0.44922 0-0.80469 0.14844-1.0625 0.4375-0.25 0.28125-0.375 0.67188-0.375 1.1719s0.125 0.89844 0.375 1.1875c0.25781 0.28125 0.61328 0.42188 1.0625 0.42188 0.25 0 0.48438-0.035156 0.70312-0.10938 0.22656-0.070313 0.45703-0.1875 0.6875-0.34375z"/>
  </symbol>
  <symbol id="c" overflow="visible">
   <path d="m3.2656-2.6562c-0.10547-0.039062-0.21094-0.070312-0.3125-0.09375-0.09375-0.019531-0.19531-0.03125-0.29688-0.03125-0.30469 0-0.53906 0.09375-0.70312 0.28125-0.15625 0.1875-0.23438 0.46484-0.23438 0.82812v1.6719h-1.1562v-3.6406h1.1562v0.59375c0.15625-0.23828 0.32812-0.41016 0.51562-0.51562 0.19531-0.11328 0.42969-0.17188 0.70312-0.17188 0.039062 0 0.082031 0.007813 0.125 0.015625 0.039062 0 0.10938 0.007812 0.20312 0.015625z"/>
  </symbol>
  <symbol id="a" overflow="visible">
   <path d="m4.1875-1.8281v0.32812h-2.7188c0.03125 0.27344 0.12891 0.48047 0.29688 0.625 0.16406 0.13672 0.40625 0.20312 0.71875 0.20312 0.23828 0 0.48438-0.035156 0.73438-0.10938 0.25781-0.070312 0.52344-0.1875 0.79688-0.34375v0.90625c-0.27344 0.10547-0.54688 0.18359-0.82812 0.23438-0.27344 0.050781-0.54297 0.078125-0.8125 0.078125-0.66797 0-1.1836-0.16406-1.5469-0.5-0.36719-0.33203-0.54688-0.80078-0.54688-1.4062 0-0.59375 0.17578-1.0625 0.53125-1.4062 0.36328-0.34375 0.85938-0.51562 1.4844-0.51562 0.57031 0 1.0312 0.17969 1.375 0.53125 0.34375 0.34375 0.51562 0.80469 0.51562 1.375zm-1.1875-0.39062c0-0.21875-0.070312-0.39453-0.20312-0.53125-0.125-0.13281-0.29297-0.20312-0.5-0.20312-0.23047 0-0.41797 0.0625-0.5625 0.1875-0.13672 0.125-0.21875 0.30859-0.25 0.54688z"/>
  </symbol>
  <symbol id="e" overflow="visible">
   <path d="m2.1875-1.6406c-0.24219 0-0.42188 0.042969-0.54688 0.125-0.125 0.085937-0.1875 0.20312-0.1875 0.35938s0.046875 0.27734 0.14062 0.35938c0.10156 0.085937 0.24219 0.125 0.42188 0.125 0.21875 0 0.39844-0.078125 0.54688-0.23438 0.15625-0.16406 0.23438-0.36328 0.23438-0.59375v-0.14062zm1.7812-0.4375v2.0781h-1.1719v-0.54688c-0.15625 0.23047-0.33594 0.39844-0.53125 0.5-0.19922 0.09375-0.43359 0.14062-0.70312 0.14062-0.38672 0-0.69922-0.10938-0.9375-0.32812-0.23047-0.21875-0.34375-0.50391-0.34375-0.85938 0-0.42578 0.14453-0.73828 0.4375-0.9375 0.30078-0.19531 0.76562-0.29688 1.3906-0.29688h0.6875v-0.09375c0-0.1875-0.074219-0.32031-0.21875-0.40625-0.14844-0.082031-0.375-0.125-0.6875-0.125-0.24219 0-0.46875 0.027344-0.6875 0.078125-0.21875 0.042969-0.41797 0.11719-0.59375 0.21875v-0.89062c0.25-0.0625 0.5-0.10938 0.75-0.14062s0.5-0.046875 0.75-0.046875c0.65625 0 1.1289 0.13281 1.4219 0.39062 0.28906 0.26172 0.4375 0.68359 0.4375 1.2656z"/>
  </symbol>
  <symbol id="b" overflow="visible">
   <path d="m1.8281-4.6719v1.0312h1.2031v0.82812h-1.2031v1.5469c0 0.16797 0.03125 0.28125 0.09375 0.34375 0.070313 0.0625 0.20703 0.09375 0.40625 0.09375h0.59375v0.82812h-0.98438c-0.46875 0-0.79688-0.09375-0.98438-0.28125-0.1875-0.19531-0.28125-0.52344-0.28125-0.98438v-1.5469h-0.57812v-0.82812h0.57812v-1.0312z"/>
  </symbol>
  <symbol id="i" overflow="visible">
   <path d="m3.0312-3.1094v-1.9531h1.1719v5.0625h-1.1719v-0.53125c-0.15625 0.21875-0.33594 0.38281-0.53125 0.48438-0.1875 0.09375-0.40625 0.14062-0.65625 0.14062-0.46094 0-0.83594-0.17578-1.125-0.53125-0.28125-0.35156-0.42188-0.8125-0.42188-1.375s0.14062-1.0195 0.42188-1.375c0.28906-0.36328 0.66406-0.54688 1.125-0.54688 0.25 0 0.46875 0.054687 0.65625 0.15625 0.19531 0.10547 0.375 0.26172 0.53125 0.46875zm-0.76562 2.3594c0.25 0 0.4375-0.085938 0.5625-0.26562 0.13281-0.1875 0.20312-0.45312 0.20312-0.79688 0-0.35156-0.070312-0.61719-0.20312-0.79688-0.125-0.1875-0.3125-0.28125-0.5625-0.28125s-0.44531 0.09375-0.57812 0.28125c-0.125 0.17969-0.1875 0.44531-0.1875 0.79688 0 0.34375 0.0625 0.60938 0.1875 0.79688 0.13281 0.17969 0.32812 0.26562 0.57812 0.26562z"/>
  </symbol>
  <symbol id="h" overflow="visible">
   <path d="m2.5-0.75c0.25 0 0.4375-0.085938 0.5625-0.26562 0.13281-0.1875 0.20312-0.45312 0.20312-0.79688 0-0.35156-0.070313-0.61719-0.20312-0.79688-0.125-0.1875-0.3125-0.28125-0.5625-0.28125s-0.44531 0.09375-0.57812 0.28125c-0.13672 0.1875-0.20312 0.45312-0.20312 0.79688s0.066406 0.60938 0.20312 0.79688c0.13281 0.17969 0.32812 0.26562 0.57812 0.26562zm-0.78125-2.3594c0.16406-0.20703 0.34375-0.36328 0.53125-0.46875 0.19531-0.10156 0.42188-0.15625 0.67188-0.15625 0.44531 0 0.81641 0.18359 1.1094 0.54688 0.28906 0.35547 0.4375 0.8125 0.4375 1.375s-0.14844 1.0234-0.4375 1.375c-0.29297 0.35547-0.66406 0.53125-1.1094 0.53125-0.25 0-0.47656-0.046875-0.67188-0.14062-0.1875-0.10156-0.36719-0.26562-0.53125-0.48438v0.53125h-1.1562v-5.0625h1.1562z"/>
  </symbol>
  <symbol id="g" overflow="visible">
   <path d="m0.078125-3.6406h1.1719l0.96875 2.4688 0.84375-2.4688h1.1562l-1.5312 3.9844c-0.15625 0.40625-0.33984 0.6875-0.54688 0.84375-0.19922 0.16406-0.46484 0.25-0.79688 0.25h-0.67188v-0.76562h0.35938c0.19531 0 0.33594-0.03125 0.42188-0.09375 0.09375-0.0625 0.16406-0.17969 0.21875-0.34375l0.03125-0.09375z"/>
  </symbol>
  <symbol id="f" overflow="visible">
   <path d="m0.60938-4.8594h1.25v4.8594h-1.25z"/>
  </symbol>
  <symbol id="s" overflow="visible">
   <path d="m3.0312-0.625c-0.15625 0.21875-0.33594 0.38281-0.53125 0.48438-0.1875 0.09375-0.40625 0.14062-0.65625 0.14062-0.44922 0-0.82031-0.17188-1.1094-0.51562-0.29297-0.35156-0.4375-0.80078-0.4375-1.3438 0-0.53906 0.14453-0.98438 0.4375-1.3281 0.28906-0.35156 0.66016-0.53125 1.1094-0.53125 0.25 0 0.46875 0.054688 0.65625 0.15625 0.19531 0.09375 0.375 0.25 0.53125 0.46875v-0.54688h1.1719v3.2656c0 0.59375-0.1875 1.0391-0.5625 1.3438-0.36719 0.3125-0.89844 0.46875-1.5938 0.46875-0.23047 0-0.45312-0.023438-0.67188-0.0625-0.21094-0.03125-0.41797-0.085938-0.625-0.15625v-0.90625c0.19531 0.125 0.39453 0.21094 0.59375 0.26562 0.19531 0.0625 0.39453 0.09375 0.59375 0.09375 0.375 0 0.64844-0.085937 0.82812-0.25 0.17578-0.16797 0.26562-0.42969 0.26562-0.79688zm-0.76562-2.2656c-0.24219 0-0.42969 0.09375-0.5625 0.28125-0.13672 0.17969-0.20312 0.42969-0.20312 0.75 0 0.33594 0.0625 0.58984 0.1875 0.76562 0.13281 0.16797 0.32812 0.25 0.57812 0.25 0.23828 0 0.42578-0.085938 0.5625-0.26562 0.13281-0.17578 0.20312-0.42578 0.20312-0.75 0-0.32031-0.070312-0.57031-0.20312-0.75-0.13672-0.1875-0.32422-0.28125-0.5625-0.28125z"/>
  </symbol>
  <symbol id="r" overflow="visible">
   <path d="m2.9531-5.0625v0.76562h-0.64062c-0.16797 0-0.28125 0.03125-0.34375 0.09375s-0.09375 0.16797-0.09375 0.3125v0.25h0.98438v0.82812h-0.98438v2.8125h-1.1719v-2.8125h-0.57812v-0.82812h0.57812v-0.25c0-0.39453 0.10938-0.6875 0.32812-0.875 0.22656-0.19531 0.57031-0.29688 1.0312-0.29688z"/>
  </symbol>
  <symbol id="d" overflow="visible">
   <path d="m2.2969-2.8906c-0.26172 0-0.46094 0.09375-0.59375 0.28125-0.13672 0.17969-0.20312 0.44531-0.20312 0.79688 0 0.34375 0.066406 0.60938 0.20312 0.79688 0.13281 0.1875 0.33203 0.28125 0.59375 0.28125 0.25 0 0.44141-0.09375 0.57812-0.28125 0.13281-0.1875 0.20312-0.45312 0.20312-0.79688 0-0.35156-0.070313-0.61719-0.20312-0.79688-0.13672-0.1875-0.32812-0.28125-0.57812-0.28125zm0-0.84375c0.625 0 1.1094 0.17188 1.4531 0.51562 0.35156 0.33594 0.53125 0.80469 0.53125 1.4062 0 0.59375-0.17969 1.0625-0.53125 1.4062-0.34375 0.33594-0.82812 0.5-1.4531 0.5-0.63672 0-1.1328-0.16406-1.4844-0.5-0.35547-0.34375-0.53125-0.8125-0.53125-1.4062 0-0.60156 0.17578-1.0703 0.53125-1.4062 0.35156-0.34375 0.84766-0.51562 1.4844-0.51562z"/>
  </symbol>
  <symbol id="q" overflow="visible">
   <path d="m3.9375-3.0312c0.14453-0.22656 0.31641-0.39844 0.51562-0.51562 0.20703-0.125 0.42969-0.1875 0.67188-0.1875 0.41406 0 0.73438 0.13281 0.95312 0.39062 0.21875 0.26172 0.32812 0.63672 0.32812 1.125v2.2188h-1.1719v-1.8906c0.007813-0.03125 0.015625-0.0625 0.015625-0.09375v-0.125c0-0.25781-0.042969-0.44531-0.125-0.5625-0.074219-0.11328-0.19531-0.17188-0.35938-0.17188-0.21875 0-0.39062 0.09375-0.51562 0.28125-0.11719 0.17969-0.17969 0.4375-0.1875 0.78125v1.7812h-1.1719v-1.8906c0-0.40625-0.039063-0.66406-0.10938-0.78125-0.0625-0.11328-0.18359-0.17188-0.35938-0.17188-0.21875 0-0.39062 0.09375-0.51562 0.28125-0.125 0.17969-0.1875 0.43359-0.1875 0.76562v1.7969h-1.1719v-3.6406h1.1719v0.53125c0.14453-0.20703 0.3125-0.36328 0.5-0.46875 0.1875-0.10156 0.39062-0.15625 0.60938-0.15625 0.25 0 0.46875 0.0625 0.65625 0.1875 0.19531 0.125 0.34766 0.29688 0.45312 0.51562z"/>
  </symbol>
  <symbol id="p" overflow="visible">
   <path d="m4.2188-2.2188v2.2188h-1.1719v-1.6875c0-0.32031-0.011719-0.53906-0.03125-0.65625-0.011719-0.125-0.03125-0.21094-0.0625-0.26562-0.042969-0.070313-0.10547-0.12891-0.1875-0.17188-0.074219-0.039062-0.16406-0.0625-0.26562-0.0625-0.24219 0-0.43359 0.09375-0.57812 0.28125-0.13672 0.1875-0.20312 0.44531-0.20312 0.76562v1.7969h-1.1562v-5.0625h1.1562v1.9531c0.17578-0.20703 0.36328-0.36328 0.5625-0.46875 0.19531-0.10156 0.41406-0.15625 0.65625-0.15625 0.41406 0 0.73438 0.13281 0.95312 0.39062 0.21875 0.26172 0.32812 0.63672 0.32812 1.125z"/>
  </symbol>
  <symbol id="o" overflow="visible">
   <path d="m0.60938-4.8594h1.4062l1.75 3.3281v-3.3281h1.1875v4.8594h-1.3906l-1.7656-3.3281v3.3281h-1.1875z"/>
  </symbol>
  <symbol id="n" overflow="visible">
   <path d="m0.51562-1.4219v-2.2188h1.1719v0.35938 0.75 0.59375c0 0.29297 0.003906 0.50781 0.015625 0.64062 0.019531 0.125 0.046875 0.21484 0.078125 0.26562 0.050781 0.085938 0.11328 0.14844 0.1875 0.1875 0.082031 0.042969 0.17188 0.0625 0.26562 0.0625 0.23828 0 0.42578-0.09375 0.5625-0.28125 0.14453-0.1875 0.21875-0.44531 0.21875-0.78125v-1.7969h1.1562v3.6406h-1.1562v-0.53125c-0.17969 0.21875-0.36719 0.38281-0.5625 0.48438-0.1875 0.09375-0.40234 0.14062-0.64062 0.14062-0.41797 0-0.74219-0.125-0.96875-0.375-0.21875-0.25781-0.32812-0.64062-0.32812-1.1406z"/>
  </symbol>
  <symbol id="m" overflow="visible">
   <path d="m4.2188-2.2188v2.2188h-1.1719v-1.7031c0-0.3125-0.011719-0.52344-0.03125-0.64062-0.011719-0.125-0.03125-0.21094-0.0625-0.26562-0.042969-0.070313-0.10547-0.12891-0.1875-0.17188-0.074219-0.039062-0.16406-0.0625-0.26562-0.0625-0.24219 0-0.43359 0.09375-0.57812 0.28125-0.13672 0.1875-0.20312 0.44531-0.20312 0.76562v1.7969h-1.1562v-3.6406h1.1562v0.53125c0.17578-0.20703 0.36328-0.36328 0.5625-0.46875 0.19531-0.10156 0.41406-0.15625 0.65625-0.15625 0.41406 0 0.73438 0.13281 0.95312 0.39062 0.21875 0.26172 0.32812 0.63672 0.32812 1.125z"/>
  </symbol>
  <symbol id="l" overflow="visible">
   <path d="m0.60938-4.8594h2.0781c0.61328 0 1.0859 0.14062 1.4219 0.42188 0.33203 0.27344 0.5 0.66406 0.5 1.1719 0 0.51172-0.16797 0.90234-0.5 1.1719-0.33594 0.27344-0.80859 0.40625-1.4219 0.40625h-0.82812v1.6875h-1.25zm1.25 0.90625v1.3594h0.6875c0.25 0 0.4375-0.054688 0.5625-0.17188 0.13281-0.11328 0.20312-0.28125 0.20312-0.5s-0.070312-0.38281-0.20312-0.5c-0.125-0.125-0.3125-0.1875-0.5625-0.1875z"/>
  </symbol>
  <symbol id="k" overflow="visible">
   <path d="m0.5625-3.6406h1.1562v3.5781c0 0.48828-0.12109 0.85938-0.35938 1.1094-0.23047 0.25781-0.5625 0.39062-1 0.39062h-0.57812v-0.76562h0.20312c0.21875 0 0.36719-0.054687 0.45312-0.15625 0.082031-0.09375 0.125-0.28906 0.125-0.57812zm0-1.4219h1.1562v0.95312h-1.1562z"/>
  </symbol>
  <symbol id="j" overflow="visible">
   <path d="m3.5-3.5312v0.95312c-0.15625-0.10156-0.32031-0.17969-0.48438-0.23438-0.15625-0.050781-0.32031-0.078125-0.48438-0.078125-0.32422 0-0.57812 0.09375-0.76562 0.28125-0.17969 0.1875-0.26562 0.45312-0.26562 0.79688 0 0.33594 0.085938 0.60156 0.26562 0.79688 0.1875 0.1875 0.44141 0.28125 0.76562 0.28125 0.17578 0 0.34766-0.023437 0.51562-0.078125 0.16406-0.0625 0.31641-0.14453 0.45312-0.25v0.95312c-0.17969 0.074219-0.35938 0.125-0.54688 0.15625s-0.38281 0.046875-0.57812 0.046875c-0.65625 0-1.1719-0.16406-1.5469-0.5-0.36719-0.34375-0.54688-0.8125-0.54688-1.4062 0-0.60156 0.17969-1.0703 0.54688-1.4062 0.375-0.34375 0.89062-0.51562 1.5469-0.51562 0.19531 0 0.38281 0.023437 0.5625 0.0625 0.1875 0.03125 0.375 0.078125 0.5625 0.14062z"/>
  </symbol>
 </defs>
 <g>
  <path d="m350.66 109.07c46.555 0 85.129 38.574 85.129 85.129 0 47.887-38.574 86.461-85.129 86.461-47.887 0-86.461-38.574-86.461-86.461 0-46.555 38.574-85.129 86.461-85.129zm0 26.602c-33.254 0-59.859 26.602-59.859 58.527 0 33.254 26.602 59.859 59.859 59.859 31.926 0 58.527-26.602 58.527-59.859 0-31.926-26.602-58.527-58.527-58.527z"/>
  <path d="m350.66 289.98c86.461 0 158.29 65.18 166.27 150.31 1.332 14.633-25.273 14.633-26.602 1.332-7.9805-70.5-67.84-125.04-139.67-125.04-73.16 0-133.02 54.535-141 125.04-1.332 13.301-27.934 13.301-26.602-1.332 9.3125-85.129 81.141-150.31 167.6-150.31z"/>
  <path d="m350.66 0c154.3 0 279.34 125.04 279.34 280.66 0 154.3-125.04 279.34-279.34 279.34-155.63 0-280.66-125.04-280.66-279.34 0-155.63 125.04-280.66 280.66-280.66zm0 26.602c-141 0-254.06 113.06-254.06 254.06 0 139.67 113.06 252.73 254.06 252.73 139.67 0 252.73-113.06 252.73-252.73 0-141-113.06-254.06-252.73-254.06z"/>
  <use x="70" y="579.953125" xlink:href="#t"/>
  <use x="74.882812" y="579.953125" xlink:href="#c"/>
  <use x="78.160156" y="579.953125" xlink:href="#a"/>
  <use x="82.671875" y="579.953125" xlink:href="#e"/>
  <use x="87.160156" y="579.953125" xlink:href="#b"/>
  <use x="90.339844" y="579.953125" xlink:href="#a"/>
  <use x="94.851562" y="579.953125" xlink:href="#i"/>
  <use x="101.925781" y="579.953125" xlink:href="#h"/>
  <use x="106.6875" y="579.953125" xlink:href="#g"/>
  <use x="113.335938" y="579.953125" xlink:href="#f"/>
  <use x="115.8125" y="579.953125" xlink:href="#s"/>
  <use x="120.574219" y="579.953125" xlink:href="#e"/>
  <use x="70" y="586.601562" xlink:href="#r"/>
  <use x="72.894531" y="586.601562" xlink:href="#c"/>
  <use x="76.171875" y="586.601562" xlink:href="#d"/>
  <use x="80.742188" y="586.601562" xlink:href="#q"/>
  <use x="89.988281" y="586.601562" xlink:href="#b"/>
  <use x="93.167969" y="586.601562" xlink:href="#p"/>
  <use x="97.902344" y="586.601562" xlink:href="#a"/>
  <use x="104.726562" y="586.601562" xlink:href="#o"/>
  <use x="110.292969" y="586.601562" xlink:href="#d"/>
  <use x="114.863281" y="586.601562" xlink:href="#n"/>
  <use x="119.597656" y="586.601562" xlink:href="#m"/>
  <use x="126.648438" y="586.601562" xlink:href="#l"/>
  <use x="131.523438" y="586.601562" xlink:href="#c"/>
  <use x="134.804688" y="586.601562" xlink:href="#d"/>
  <use x="139.371094" y="586.601562" xlink:href="#k"/>
  <use x="141.652344" y="586.601562" xlink:href="#a"/>
  <use x="146.164062" y="586.601562" xlink:href="#j"/>
  <use x="150.105469" y="586.601562" xlink:href="#b"/>
 </g>
</svg>
